<svg xmlns="http://www.w3.org/2000/svg" width="132" height="44" viewBox="0 0 132 44">
  <path d="M 0 32 L 7 12 H 13 L 20 32 H 15 L 10 17 L 5 32 Z M 6 27 V 23 H 14 V 27 Z"></path>
  <path d="M 22 32 V 12 H 28 C 36 12 39 14 39 22 C 39 30 36 32 28 32 Z M 27 28 C 32 28 34 27 34 22 C 34 17 32 16 27 16 V 28"></path>
  <path d="M 39 32 L 46 12 H 52 L 59 32 H 54 L 49 17 L 44 32 Z M 45 27 V 23 H 53 V 27 Z"></path>
  <path d="M 61 32 V 12 H 66 V 20 H 72 V 12 H 77 V 32 H 72 V 24 H 66 V 32 Z"></path>
  <path d="M 79 22 C 79 15 82 12 88 12 C 94 12 97 15 97 22 C 97 29 94 32 88 32 C 82 32 79 29 79 22 M 88 16 C 85 16 84 19 84 22 C 84 25 85 28 88 28 C 91 28 92 25 92 22 C 92 19 91 16 88 16"></path>
  <path d="M 99 32 V 12 H 104 V 28 H 113 V 32 Z"></path>
  <path d="M 115 32 V 12 H 121 C 129 12 132 14 132 22 C 132 30 129 32 121 32 Z M 120 28 C 125 28 127 27 127 22 C 127 17 125 16 120 16 V 28"></path>
  <path d="M 51 10 V 8 H 53 V 6 H 55 V 4 H 57 V 2 H 61 V 0 H 77 V 2 H 81 V 4 H 83 V 6 H 85 V 8 H 87 V 10 H 81 V 8 H 79 V 6 H 75 V 4 H 63 V 6 H 59 V 8 H 57 V 10 Z"></path>
  <path d="M 87 34 V 36 H 85 V 38 H 83 V 40 H 81 V 42 H 77 V 44 H 61 V 42 H 57 V 40 H 55 V 38 H 53 V 36 H 51 V 34 H 57 V 36 H 59 V 38 H 63 V 40 H 75 V 38 H 79 V 36 H 81 V 34 Z"></path>
</svg>
