<?xml version="1.0" standalone="no"?>
<!DOCTYPE svg PUBLIC "-//W3C//DTD SVG 20010904//EN"
 "http://www.w3.org/TR/2001/REC-SVG-20010904/DTD/svg10.dtd">
<svg version="1.0" xmlns="http://www.w3.org/2000/svg"
 width="600.000000pt" height="600.000000pt" viewBox="0 0 600.000000 600.000000"
 preserveAspectRatio="xMidYMid meet">
<metadata>
Created by potrace 1.14, written by Peter Selinger 2001-2017
</metadata>
<g transform="translate(0.000000,600.000000) scale(0.100000,-0.100000)"
fill="#000000" stroke="none">
<path d="M2060 5415 l0 -115 -232 -2 -233 -3 -3 -112 -3 -112 -112 -3 -112 -3
-3 -117 -3 -118 -114 0 -115 0 0 -115 0 -115 -115 0 -115 0 0 -115 0 -115
-120 0 -120 0 0 -235 0 -235 -115 0 -115 0 0 -930 0 -930 115 0 115 0 0 -235
0 -235 120 0 120 0 0 -115 0 -115 115 0 115 0 0 -115 0 -115 115 0 114 0 3
-118 3 -117 112 -3 112 -3 3 -112 3 -112 233 -3 232 -2 0 -115 0 -115 930 0
930 0 0 115 0 115 233 2 232 3 3 112 3 112 112 3 112 3 3 117 3 118 114 0 115
0 0 115 0 115 115 0 115 0 0 115 0 115 120 0 120 0 0 235 0 235 115 0 115 0 0
930 0 930 -115 0 -115 0 0 235 0 235 -120 0 -120 0 0 115 0 115 -115 0 -115 0
0 115 0 115 -115 0 -114 0 -3 118 -3 117 -112 3 -112 3 -3 112 -3 112 -232 3
-233 2 0 115 0 115 -930 0 -930 0 0 -115z m1630 -470 l0 -115 230 0 230 0 0
-115 0 -115 120 0 120 0 0 -115 0 -115 115 0 115 0 0 -120 0 -120 115 0 115 0
0 -230 0 -230 115 0 115 0 0 -700 0 -700 -115 0 -115 0 0 -230 0 -230 -115 0
-115 0 0 -120 0 -120 -115 0 -115 0 0 -115 0 -115 -120 0 -120 0 0 -115 0
-115 -230 0 -230 0 0 -115 0 -115 -700 0 -700 0 0 115 0 115 -230 0 -230 0 0
115 0 115 -120 0 -120 0 0 115 0 115 -115 0 -115 0 0 120 0 120 -115 0 -115 0
0 230 0 230 -115 0 -115 0 0 700 0 700 115 0 115 0 0 230 0 230 115 0 115 0 0
120 0 120 115 0 115 0 0 115 0 115 120 0 120 0 0 115 0 115 230 0 230 0 0 115
0 115 700 0 700 0 0 -115z"/>
<path d="M2060 2970 l0 -1160 290 0 290 0 0 465 0 465 350 0 350 0 0 -465 0
-465 290 0 290 0 0 1160 0 1160 -290 0 -290 0 0 -465 0 -465 -350 0 -350 0 0
465 0 465 -290 0 -290 0 0 -1160z"/>
</g>
</svg>
